<?xml version="1.0" encoding="UTF-8"?>
<!--
  Facebook "f" mark, light-mode variant (Facebook brand blue #1877F2). Path
  data identical to the React <FacebookIcon /> in
  src/react/maze_web_server/src/components/OAuthButtons.tsx for visual parity.
  Width/height matched to the other OAuth icons (24×24) so all three buttons
  render at the same size.
-->
<svg xmlns="http://www.w3.org/2000/svg" width="24" height="24" viewBox="0 0 24 24">
  <path fill="#1877F2" d="M22.675 0H1.325C.593 0 0 .593 0 1.325v21.351C0 23.408.593 24 1.325 24H12.82V14.706h-3.13v-3.622h3.13V8.413c0-3.1 1.894-4.788 4.659-4.788 1.325 0 2.464.099 2.795.143v3.24l-1.918.001c-1.504 0-1.795.715-1.795 1.763v2.31h3.587l-.467 3.622h-3.12V24h6.116c.73 0 1.323-.592 1.323-1.324V1.325C24 .593 23.408 0 22.675 0z"/>
</svg>
